<?xml version="1.0" standalone="no"?>
<!DOCTYPE svg PUBLIC "-//W3C//DTD SVG 20010904//EN"
 "http://www.w3.org/TR/2001/REC-SVG-20010904/DTD/svg10.dtd">
<svg version="1.0" xmlns="http://www.w3.org/2000/svg"
 width="150.000000pt" height="150.000000pt" viewBox="0 0 150.000000 150.000000"
 preserveAspectRatio="xMidYMid meet">

<g transform="translate(0.000000,150.000000) scale(0.100000,-0.100000)"
fill="#000000" stroke="none">
<path d="M638 1116 l-93 -84 -3 46 c-5 91 -5 92 -72 92 -32 0 -62 -5 -65 -10
-4 -6 -7 -68 -9 -137 l-2 -127 -94 -85 c-52 -47 -101 -95 -107 -107 -22 -39
13 -94 60 -94 7 0 123 95 256 211 217 188 245 209 259 196 10 -7 107 -92 216
-188 109 -96 211 -184 225 -196 14 -12 36 -22 49 -23 29 0 62 34 62 65 0 31
-19 51 -219 231 -306 277 -326 293 -348 294 -15 0 -56 -30 -115 -84z"/>
<path d="M551 817 l-201 -172 0 -187 0 -188 140 0 140 0 0 128 c0 169 2 172
116 172 128 0 124 5 124 -160 l0 -140 140 0 140 0 0 189 0 188 -166 144 c-92
79 -181 156 -199 171 l-33 28 -201 -173z"/>
</g>
</svg>
